<svg width="24" height="25" viewBox="0 0 24 25" fill="none" xmlns="http://www.w3.org/2000/svg">
<path fill-rule="evenodd" clip-rule="evenodd" d="M3.60629 5.77548L9.61701 11.7888C10.928 13.0972 13.0709 13.0984 14.383 11.7888L20.3937 5.77548C20.4542 5.71494 20.4454 5.61526 20.3752 5.56628C19.7621 5.13873 19.0162 4.88525 18.2127 4.88525H5.7873C4.98377 4.88525 4.23786 5.13877 3.6248 5.56628C3.55457 5.61526 3.54575 5.71494 3.60629 5.77548ZM2.00001 8.67251C2.00001 8.04067 2.15666 7.44368 2.4326 6.91896C2.47576 6.83687 2.58513 6.82027 2.65071 6.88585L8.58534 12.8205C10.4646 14.7025 13.5342 14.7036 15.4147 12.8205L21.3493 6.88585C21.4149 6.82027 21.5243 6.83687 21.5674 6.91896C21.8433 7.44368 22 8.04071 22 8.67251V16.5786C22 18.6685 20.3 20.3659 18.2127 20.3659H5.7873C3.70006 20.3659 2.00001 18.6685 2.00001 16.5786V8.67251Z" fill="#000017"/>
</svg>
