<svg width="180" height="9" viewBox="0 0 180 9" fill="none" xmlns="http://www.w3.org/2000/svg">
<path fill-rule="evenodd" clip-rule="evenodd" d="M135.786 1.58623C135.035 1.6463 135.606 1.91663 135.425 2.27707C128.487 1.3159 120.617 2.00674 112.958 2.03677C100.132 2.06681 85.8048 1.82652 74.3008 1.37597C58.952 0.745203 43.2127 1.40601 29.0354 0.384756C26.9328 0.234572 24.65 0.174496 22.3672 0.264606C16.6603 0.655084 12.0947 -0.546384 6.14742 0.324681C6.71812 1.13567 8.82066 1.76645 9.87195 2.217C7.43896 2.39722 2.45287 2.15692 0.110001 1.61626C0.41037 2.217 2.27266 3.02799 2.36276 3.65876C4.46533 4.22946 7.25874 5.31079 9.72176 5.67123C12.9958 6.18185 16.3599 7.32324 19.8742 7.35328C31.7086 8.85511 44.234 8.58479 54.2062 8.88516C56.6091 8.70494 61.0245 8.13424 64.8091 8.46465C67.5124 8.70494 71.6876 7.74375 74.4209 8.31445C76.4934 7.44339 80.2781 8.49467 82.4107 7.89394C82.6209 7.83387 82.7411 7.59357 82.9213 7.47343C83.8224 7.83387 85.144 7.80383 85.7748 7.2031C89.229 7.32324 92.6232 6.93277 96.3777 7.05292C96.4979 6.54229 95.8972 6.84266 95.9873 6.36207C97.7294 5.97159 97.9997 7.08295 99.7419 7.17306C99.7719 6.78259 99.5016 6.69248 99.3814 6.48222C100.283 6.48222 100.463 7.2932 101.634 7.02287C102.145 7.05291 101.604 6.84266 101.754 6.48222C103.166 6.42215 103.526 6.72251 104.638 6.33203C105.028 6.33203 104.758 7.02287 105.148 7.02287C107.221 6.78258 109.714 7.65364 110.645 6.33203C111.396 6.66243 112.327 6.27196 113.138 6.48222C113.349 6.54229 113.739 7.02287 113.889 7.02287C114.28 7.05291 114.58 6.54229 115.001 6.48222C115.271 6.45218 115.571 6.78258 115.872 6.75254C116.172 6.75254 116.532 6.3921 116.863 6.33203C118.305 6.15181 121.669 6.15181 123.861 6.18185C124.642 6.18185 125.393 6.60236 126.114 6.60236C127.225 6.60236 128.427 6.48221 129.598 6.45218C133.203 6.36207 136.297 6.09174 139.961 5.88148C152.576 5.25071 165.763 4.43971 180 4.3496C179.97 3.29832 179.039 4.64998 178.528 3.95913C174.684 4.61994 169.247 4.13935 165.372 4.07927C164.892 3.14813 166.604 3.38843 166.994 3.74887C169.968 3.14813 173.722 4.13936 177.116 3.47855C169.157 2.33715 161.828 3.20821 154.649 3.17817C145.548 3.4485 137.558 3.74887 128.457 3.59869C126.685 3.56865 124.582 4.2595 122.72 3.47855C124.042 3.08807 125.754 3.05802 127.706 3.05802C128.277 3.08806 127.646 2.51736 127.946 2.36718C128.968 2.78769 129.839 2.93788 131.19 2.90784C134.134 2.81773 137.678 3.05803 140.412 2.48733C140.291 1.94667 139.24 2.39722 138.91 2.06682C139.33 1.13568 140.261 2.24704 141.042 1.52616C139.961 1.40601 138.549 1.22579 138.039 1.52616C137.949 1.58623 138.129 1.82652 138.159 1.79649C137.258 2.15693 136.477 2.15693 135.786 1.58623ZM161.227 4.07927C161.738 3.59869 163.96 3.59869 164.831 4.10932C163.87 4.34961 162.398 4.04924 161.227 4.07927ZM155.009 4.13935C155.73 3.74887 158.193 3.4485 159.124 4.07927C157.683 4.19942 156.631 4.07927 155.009 4.13935ZM151.765 4.0192C151.765 4.16938 151.856 4.16938 151.886 4.28953C150.985 4.07927 149.272 4.86024 149.152 4.16939C150.204 4.16939 153.117 3.62872 154.889 4.0192C153.958 4.25949 152.576 4.28953 151.765 4.0192ZM146.509 4.43972C146.179 4.4998 144.977 4.89026 144.887 4.28953C145.217 4.13935 146.389 3.95913 146.509 4.43972ZM141.523 4.28953C141.793 4.37964 142.394 4.07927 142.274 4.55986C142.034 4.49979 141.403 4.80015 141.523 4.28953ZM137.919 4.5899C138.489 4.55987 140.051 4.22947 140.412 4.71005C139.601 4.8302 138.309 4.98038 137.919 4.5899ZM118.695 4.04924C118.605 3.62873 119.025 3.77891 118.935 3.3584C119.927 3.83899 120.557 3.29833 121.939 3.47855C121.939 3.65877 122.089 3.65877 122.059 3.89906C121.188 4.22946 119.806 3.95913 118.695 4.04924ZM115.601 3.77891C116.112 3.6888 116.382 3.32836 116.833 3.3584C117.403 3.41847 117.704 4.19943 117.944 3.62873C118.214 3.59869 118.335 3.74887 118.335 4.04924C117.043 3.86902 114.67 4.49979 113.469 3.77891C113.859 3.26829 114.76 3.89906 115.601 3.77891ZM105.749 6.24192C106.14 6.27196 106.71 6.12177 106.62 6.66243C106.35 6.90273 105.539 6.93277 105.749 6.24192ZM103.977 5.1606H104.488V5.58111C104.157 5.61115 103.947 5.52104 103.977 5.1606Z" fill="#FBBD73"/>
</svg>
