<svg width="54" height="27" viewBox="0 0 54 27" fill="none" xmlns="http://www.w3.org/2000/svg">
<path d="M0.618679 12.392C0.619312 12.3914 0.619839 12.3906 0.620579 12.39L11.6425 1.42125C12.4682 0.599543 13.8037 0.602601 14.6257 1.42842C15.4475 2.25414 15.4443 3.58969 14.6186 4.4115L7.21849 11.7758H51.8906C53.0556 11.7758 54 12.7201 54 13.8851C54 15.0501 53.0556 15.9945 51.8906 15.9945H7.2186L14.6185 23.3588C15.4442 24.1806 15.4474 25.5161 14.6256 26.3418C13.8036 27.1678 12.468 27.1706 11.6424 26.349L0.620472 15.3802C0.619839 15.3796 0.619312 15.3789 0.618572 15.3782C-0.207565 14.5537 -0.204926 13.2138 0.618679 12.392Z" fill="#FBBD73"/>
</svg>
