<svg width="24" height="24" viewBox="0 0 24 24" fill="none" xmlns="http://www.w3.org/2000/svg">
<path d="M12.5 2C10.5117 2.00264 8.60556 2.79366 7.19961 4.19961C5.79366 5.60556 5.00264 7.51168 5 9.49999C5 14.8844 11.9875 21.6281 12.2844 21.9125C12.3421 21.9686 12.4195 22 12.5 22C12.5805 22 12.6579 21.9686 12.7156 21.9125C13.0125 21.6281 20 14.8844 20 9.49999C19.9973 7.51168 19.2063 5.60556 17.8004 4.19961C16.3944 2.79366 14.4883 2.00264 12.5 2ZM12.5 12.9375C11.8201 12.9375 11.1555 12.7359 10.5902 12.3582C10.0249 11.9804 9.58434 11.4436 9.32416 10.8155C9.06398 10.1873 8.99591 9.49618 9.12855 8.82937C9.26118 8.16256 9.58857 7.55006 10.0693 7.06931C10.5501 6.58857 11.1626 6.26118 11.8294 6.12855C12.4962 5.99591 13.1873 6.06398 13.8155 6.32416C14.4436 6.58434 14.9804 7.02493 15.3582 7.59022C15.7359 8.15551 15.9375 8.82012 15.9375 9.49999C15.9369 10.4115 15.5746 11.2855 14.9301 11.9301C14.2855 12.5746 13.4115 12.9369 12.5 12.9375Z" fill="#000017"/>
</svg>
