<svg width="24" height="25" viewBox="0 0 24 25" fill="none" xmlns="http://www.w3.org/2000/svg">
<path d="M21.5769 18.3722C21.3058 18.0695 20.4722 17.3148 19.8753 16.8652C19.2893 16.4046 18.3296 15.7815 17.9557 15.5886C17.3452 15.271 16.4252 15.3065 15.8537 15.6905C15.384 16.0174 14.9491 16.3915 14.5557 16.807L14.5471 16.8159C14.3322 17.043 14.0436 17.1863 13.7329 17.2203C13.4221 17.2542 13.1094 17.1767 12.8506 17.0015C11.8772 16.3377 10.9687 15.5834 10.1372 14.7487C9.30249 13.9173 8.54821 13.0088 7.88445 12.0354C7.70922 11.7765 7.63169 11.4638 7.66568 11.1531C7.69966 10.8423 7.84296 10.5537 8.07 10.3389L8.07898 10.3303C8.49448 9.93685 8.86858 9.50189 9.19541 9.0322C9.5794 8.46071 9.61495 7.54077 9.29736 6.93021C9.10439 6.55677 8.48133 5.59816 8.02078 5.01064C7.57077 4.41376 6.81646 3.58015 6.51372 3.30905C6.01957 2.86373 5.18479 2.74771 4.60235 3.06491C4.11312 3.34276 3.65481 3.67182 3.23514 4.04656L3.191 4.08563C0.615951 6.3009 2.3113 12.4842 7.36022 17.5234C12.4021 22.5731 18.5839 24.2696 20.7991 21.6945L20.8382 21.6504C21.2131 21.2308 21.5422 20.7725 21.8199 20.2832C22.1382 19.7012 22.0222 18.8664 21.5769 18.3722Z" fill="#000017"/>
</svg>
