<svg width="54" height="27" viewBox="0 0 54 27" fill="none" xmlns="http://www.w3.org/2000/svg">
<path d="M53.3813 12.392C53.3807 12.3914 53.3802 12.3906 53.3794 12.39L42.3575 1.42125C41.5318 0.599543 40.1963 0.602601 39.3743 1.42842C38.5525 2.25414 38.5557 3.58969 39.3814 4.4115L46.7815 11.7758H2.10938C0.944367 11.7758 0 12.7201 0 13.8851C0 15.0501 0.944367 15.9945 2.10938 15.9945H46.7814L39.3815 23.3588C38.5558 24.1806 38.5526 25.5161 39.3744 26.3418C40.1964 27.1678 41.532 27.1706 42.3576 26.349L53.3795 15.3802C53.3802 15.3796 53.3807 15.3789 53.3814 15.3782C54.2076 14.5537 54.2049 13.2138 53.3813 12.392Z" fill="#FBBD73"/>
</svg>
