<svg width="78" height="77" viewBox="0 0 78 77" fill="none" xmlns="http://www.w3.org/2000/svg">
<path d="M7.32575 8.23885C7.54511 8.45807 7.83261 8.56783 8.11996 8.56783C8.40731 8.56783 8.69481 8.45822 8.91418 8.23885C9.35277 7.80026 9.35277 7.08915 8.91418 6.65071L2.58424 0.320921C2.1455 -0.117666 1.43454 -0.117666 0.995953 0.320921C0.557366 0.759508 0.557366 1.47062 0.995953 1.90906L7.32575 8.23885ZM35.8754 11.157C36.4958 11.157 36.9984 10.6542 36.9984 10.0339V4.7342L40.9707 10.4863C41.3005 10.9629 41.8505 11.1651 42.372 11.0023C42.9043 10.8361 43.2483 10.3379 43.2483 9.72247L43.1649 1.10406C43.1589 0.487581 42.6573 -0.00805664 42.0421 -0.00805664C42.0384 -0.00805664 42.0346 -0.00805664 42.031 -0.00805664C41.4107 -0.00206706 40.9128 0.50555 40.9188 1.12577L40.9712 6.53437L36.7996 0.493421C36.5205 0.0889746 36.0109 -0.0866699 35.5412 0.0594759C35.072 0.205772 34.7523 0.640166 34.7523 1.13161V10.0339C34.7523 10.6542 35.2552 11.157 35.8754 11.157ZM46.4344 6.22455C52.1858 7.55095 57.4926 10.4225 61.7805 14.5285C66.0575 18.6239 69.1538 23.7851 70.7352 29.4544C70.8739 29.9509 71.3249 30.276 71.8165 30.276C71.9164 30.276 72.0179 30.2626 72.1188 30.2344C72.7163 30.0677 73.0655 29.4483 72.899 28.851C71.2093 22.7937 67.9018 17.2801 63.334 12.9062C58.7538 8.52051 53.0847 5.45325 46.9392 4.03596C46.3352 3.8964 45.7319 4.27345 45.5924 4.87795C45.453 5.48215 45.8301 6.08515 46.4344 6.22455ZM2.42612 42.8688C2.4366 42.9221 2.45112 42.9748 2.46924 43.0261C2.65657 43.5543 3.15744 43.9079 3.71732 43.9079H3.72601C4.28963 43.9043 4.78991 43.5433 4.97124 43.0099C4.97453 43.0001 4.97783 42.9903 4.98082 42.9805L6.62122 37.6806L8.25428 42.9816C8.25892 42.9969 8.26401 43.012 8.2694 43.027C8.45703 43.5548 8.95776 43.908 9.51733 43.908H9.52602C10.0892 43.9044 10.5895 43.5438 10.7711 43.0108C10.787 42.9639 10.7997 42.9163 10.8094 42.8678L12.5539 34.1017C12.675 33.4933 12.28 32.9022 11.6716 32.781C11.0634 32.6602 10.4721 33.055 10.3511 33.6633L9.32402 38.8247L7.69455 33.5356C7.51187 32.9427 6.88341 32.6103 6.2906 32.793C5.88854 32.9168 5.60703 33.2458 5.52393 33.6296L3.91573 38.8254L2.89166 33.6483C2.77112 33.0399 2.18084 32.6442 1.572 32.7645C0.963609 32.8849 0.567848 33.4758 0.688238 34.0842L2.42612 42.8688ZM69.8808 8.56783C70.1682 8.56783 70.4557 8.45822 70.675 8.23885L77.0048 1.90906C77.4434 1.47047 77.4434 0.759359 77.0048 0.320921C76.5662 -0.117666 75.8553 -0.117666 75.4165 0.320921L69.0866 6.65071C68.648 7.0893 68.648 7.80041 69.0866 8.23885C69.306 8.45822 69.5933 8.56783 69.8808 8.56783ZM76.2106 35.0295C76.831 35.0295 77.3336 34.5267 77.3336 33.9065C77.3336 33.2862 76.831 32.7834 76.2106 32.7834H72.4869C71.8665 32.7834 71.3638 33.2862 71.3638 33.9065V42.7441C71.3638 43.3643 71.8665 43.8671 72.4869 43.8671H76.2106C76.831 43.8671 77.3336 43.3643 77.3336 42.7441C77.3336 42.1239 76.831 41.621 76.2106 41.621H73.6099V39.4483H75.936C76.5563 39.4483 77.059 38.9455 77.059 38.3253C77.059 37.7051 76.5563 37.2022 75.936 37.2022H73.6099V35.0295H76.2106ZM5.88226 30.2341C5.98318 30.2623 6.0847 30.2757 6.18458 30.2757C6.67603 30.2757 7.12734 29.9506 7.26585 29.4541C8.85758 23.7472 11.982 18.5595 16.3011 14.4515C20.6334 10.331 25.9897 7.46859 31.7912 6.17364C32.3966 6.03858 32.7779 5.43827 32.6428 4.83288C32.5076 4.22748 31.907 3.84579 31.302 3.98146C25.1031 5.3652 19.3805 8.42288 14.7531 12.8239C10.1403 17.2112 6.803 22.7533 5.10226 28.8505C4.93545 29.448 5.28465 30.0674 5.88226 30.2341ZM72.1185 46.4163C71.5211 46.2495 70.9016 46.599 70.7351 47.1963C69.1538 52.8656 66.0575 58.0268 61.7805 62.122C57.4926 66.2281 52.1861 69.0995 46.4347 70.426C45.8304 70.5654 45.4533 71.1684 45.5927 71.7728C45.7127 72.2922 46.1749 72.6436 46.6861 72.6436C46.7698 72.6436 46.8546 72.6342 46.9395 72.6147C53.0848 71.1975 58.754 68.1302 63.334 63.7446C67.9017 59.3707 71.2092 53.8572 72.8987 47.8001C73.0653 47.2023 72.716 46.5828 72.1185 46.4163ZM70.675 68.4117C70.2363 67.9731 69.5253 67.9731 69.0867 68.4117C68.6482 68.8503 68.6482 69.5614 69.0867 69.9998L75.4165 76.3296C75.6359 76.5489 75.9234 76.6586 76.2108 76.6586C76.4981 76.6586 76.7856 76.549 77.005 76.3296C77.4436 75.891 77.4436 75.1799 77.005 74.7415L70.675 68.4117ZM53.3621 54.5012C53.8262 54.5012 54.2826 54.3179 54.6379 53.9627C55.2411 53.3596 55.3484 52.4649 54.9051 51.7363L49.6734 43.136L50.9918 42.8149C51.5943 42.6682 51.964 42.0607 51.8173 41.458C51.6705 40.8554 51.0624 40.4856 50.4603 40.6326L44.1729 42.1638C43.5112 42.3251 43.0002 42.8362 42.8392 43.4977L39.0005 59.259L35.1617 43.4979C35.0008 42.8362 34.4897 42.325 33.8279 42.1638L18.0666 38.3253L33.828 34.4867C34.4897 34.3254 35.0008 33.8144 35.1617 33.1528L39.0003 17.3915L42.839 33.1527C43 33.8144 43.5111 34.3256 44.1729 34.4867L59.9342 38.3253L54.4043 39.672C53.8018 39.8188 53.4321 40.4264 53.5788 41.029C53.7254 41.6314 54.3327 42.0008 54.9357 41.8543L62.1861 40.0886C63.0147 39.8868 63.5715 39.178 63.5714 38.3251C63.5714 37.4724 63.0147 36.7638 62.186 36.5619L49.6733 33.5144L54.9049 24.9143C55.3483 24.1857 55.2409 23.291 54.6379 22.6878C54.0346 22.0845 53.1398 21.9773 52.4114 22.4205L43.8111 27.6521L40.7636 15.1396C40.5619 14.3109 39.8534 13.7542 39.0006 13.7541C39.0005 13.7541 39.0008 13.7541 39.0006 13.7541C38.1478 13.7541 37.439 14.3108 37.2371 15.1395L34.1898 27.652L25.5896 22.4205C24.8611 21.9773 23.9663 22.0844 23.3632 22.6877C22.76 23.2908 22.6526 24.1855 23.096 24.9142L27.2118 31.6804C27.423 32.028 27.7932 32.2201 28.1722 32.2201C28.371 32.2201 28.5724 32.1672 28.7548 32.0564C29.2848 31.734 29.4531 31.0431 29.1307 30.5134L25.9352 25.26L33.6321 29.9421L33.0417 32.3665L15.8148 36.5621C14.9863 36.7639 14.4294 37.4727 14.4295 38.3256C14.4295 39.1783 14.9863 39.8869 15.8149 40.0888L28.3276 43.1363L23.096 51.7364C22.6526 52.465 22.76 53.3597 23.363 53.9629C23.7183 54.3182 24.1749 54.5015 24.6389 54.5015C24.9627 54.5015 25.2902 54.4124 25.5895 54.2302L34.1898 48.9986L37.2373 61.5111C37.439 62.3398 38.1475 62.8965 39.0003 62.8966H39.0005C39.8532 62.8966 40.5619 62.3399 40.7638 61.5113L43.8111 48.9986L52.4113 54.23C52.7108 54.4121 53.0381 54.5012 53.3621 54.5012ZM52.0657 25.2598L47.3836 32.9568L44.9592 32.3664L44.3688 29.942L52.0657 25.2598ZM25.9349 51.3907L30.617 43.6936L33.0414 44.284L33.6318 46.7084L25.9349 51.3907ZM44.3688 46.7086L44.9592 44.2842L47.3836 43.6937L52.0657 51.3907L44.3688 46.7086ZM40.3757 70.0927C39.2815 69.6891 38.263 69.2496 37.9487 69.1122C37.71 68.9196 37.7181 68.6517 37.7341 68.5399C37.7564 68.384 37.8698 68.0031 38.4377 67.8319C39.6896 67.455 40.8499 68.3701 40.8846 68.3978C41.3593 68.7916 42.0635 68.7289 42.4611 68.256C42.8601 67.7812 42.7989 67.0727 42.3241 66.6737C42.2398 66.6027 40.2309 64.9455 37.79 65.6814C36.5557 66.0532 35.6824 67.026 35.5108 68.2206C35.3498 69.3416 35.8357 70.42 36.7789 71.035C36.8285 71.0673 36.8806 71.0956 36.9347 71.1199C36.9863 71.143 38.2148 71.6897 39.5982 72.2C39.9874 72.3434 40.8798 72.7482 40.7624 73.4051C40.674 73.9003 40.0701 74.4125 39.2123 74.4125C38.3281 74.4125 37.4773 74.0561 36.9364 73.4593C36.5197 72.9996 35.8095 72.965 35.3501 73.3813C34.8906 73.7978 34.8555 74.5079 35.2721 74.9676C36.2318 76.0264 37.7048 76.6585 39.2123 76.6585C41.0959 76.6585 42.6778 75.4562 42.9734 73.7998C43.1963 72.5531 42.6307 70.9245 40.3757 70.0927ZM7.32575 68.4117L0.995953 74.7415C0.557366 75.1801 0.557366 75.8912 0.995953 76.3296C1.21532 76.549 1.50267 76.6586 1.79017 76.6586C2.07752 76.6586 2.36502 76.549 2.58439 76.3296L8.91418 69.9998C9.35277 69.5613 9.35277 68.8501 8.91418 68.4117C8.4756 67.973 7.76463 67.973 7.32575 68.4117ZM33.1139 70.7438C20.575 68.4824 10.3786 59.0542 7.13767 46.7239C6.97985 46.124 6.36591 45.7657 5.76606 45.9232C5.16605 46.0809 4.80772 46.695 4.96525 47.2948C8.42753 60.4665 19.3199 70.5383 32.7151 72.9541C32.7825 72.9662 32.8495 72.9722 32.9158 72.9722C33.4489 72.9722 33.9217 72.5912 34.0197 72.0483C34.1299 71.4379 33.7242 70.8538 33.1139 70.7438Z" fill="#000017"/>
</svg>
