<svg width="22" height="23" viewBox="0 0 22 23" fill="none" xmlns="http://www.w3.org/2000/svg">
<g clip-path="url(#clip0_89_164)">
<path d="M17.5152 20.7334C16.7995 21.2432 12.2071 18.0117 11.3275 18.0046C10.448 17.9975 5.80393 21.1547 5.09656 20.6335C4.38919 20.1122 6.05218 14.7584 5.78716 13.9222C5.52215 13.0859 1.07573 9.65727 1.35426 8.82535C1.63285 7.99343 7.25299 7.91616 7.96871 7.40637C8.68443 6.89664 10.5805 1.62041 11.4601 1.62745C12.3396 1.63455 14.15 6.9406 14.8574 7.46184C15.5648 7.98302 21.183 8.15079 21.4481 8.98705C21.7131 9.82332 17.2118 13.18 16.9333 14.0119C16.6547 14.8438 18.2309 20.2236 17.5152 20.7334Z" fill="url(#paint0_linear_89_164)"/>
</g>
<defs>
<linearGradient id="paint0_linear_89_164" x1="1.34173" y1="11.2077" x2="21.4593" y2="11.2077" gradientUnits="userSpaceOnUse">
<stop stop-color="#FFD500"/>
<stop offset="1" stop-color="#FFB803"/>
</linearGradient>
<clipPath id="clip0_89_164">
<rect width="21.4792" height="21.4792" fill="white" transform="translate(0 0.655762)"/>
</clipPath>
</defs>
</svg>
