<svg width="42" height="36" viewBox="0 0 42 36" fill="none" xmlns="http://www.w3.org/2000/svg">
<path d="M7.08466 35.5679H12.5259C16.5065 35.5679 19.6106 32.4638 19.6106 28.4833V23.042C19.6106 19.0614 16.5065 15.9573 12.5259 15.9573H5.55087C5.84302 9.34726 7.37681 8.36136 11.7956 5.76851C13.1103 5.00162 13.512 3.32186 12.7451 2.00718C12.2339 1.13073 11.3209 0.655762 10.3714 0.655762C9.89662 0.655762 9.42191 0.765464 8.98368 1.0211C2.4468 4.8921 0 7.41194 0 18.6597V28.4102C0 32.3908 3.17714 35.5679 7.08466 35.5679Z" fill="#000017"/>
<path d="M29.474 35.5679H34.9153C38.8959 35.5679 42 32.4638 42 28.4833V23.042C42 19.0614 38.8959 15.9573 34.9153 15.9573H27.9399C28.232 9.34726 29.7662 8.36136 34.185 5.76851C35.4997 5.00162 35.901 3.32186 35.1341 2.00718C34.6228 1.13073 33.7102 0.655762 32.7607 0.655762C32.286 0.655762 31.8112 0.765464 31.373 1.0211C24.8361 4.8921 22.3894 7.41194 22.3894 18.6597V28.4102C22.4259 32.3908 25.603 35.5679 29.474 35.5679Z" fill="#000017"/>
</svg>
